<?xml version="1.0" encoding="UTF-8"?>
<svg xmlns="http://www.w3.org/2000/svg" xmlns:xlink="http://www.w3.org/1999/xlink" width="531pt" height="227pt" viewBox="0 0 531 227" version="1.1">
<g id="surface1">
<path style="fill:none;stroke-width:1.2;stroke-linecap:butt;stroke-linejoin:round;stroke:rgb(20%,20%,20%);stroke-opacity:1;stroke-miterlimit:10;" d="M 112.001563 703.998438 L 112.001563 639.998438 " transform="matrix(1,0,0,-1,-14.9,721.1)"/>
<path style="fill:none;stroke-width:1.2;stroke-linecap:butt;stroke-linejoin:round;stroke:rgb(20%,20%,20%);stroke-opacity:1;stroke-miterlimit:10;" d="M 192.001563 703.998438 L 192.001563 639.998438 " transform="matrix(1,0,0,-1,-14.9,721.1)"/>
<path style="fill-rule:evenodd;fill:rgb(20%,20%,20%);fill-opacity:1;stroke-width:1.2;stroke-linecap:butt;stroke-linejoin:round;stroke:rgb(20%,20%,20%);stroke-opacity:1;stroke-miterlimit:10;" d="M 192.001563 703.998438 L 256.001562 639.998438 " transform="matrix(1,0,0,-1,-14.9,721.1)"/>
<path style="fill:none;stroke-width:1.2;stroke-linecap:butt;stroke-linejoin:round;stroke:rgb(20%,20%,20%);stroke-opacity:1;stroke-miterlimit:10;" d="M 256.001562 639.998438 L 256.001562 575.998438 " transform="matrix(1,0,0,-1,-14.9,721.1)"/>
<path style="fill:none;stroke-width:1.2;stroke-linecap:butt;stroke-linejoin:round;stroke:rgb(20%,20%,20%);stroke-opacity:1;stroke-miterlimit:10;" d="M 336.001562 703.998438 L 336.001562 639.998438 " transform="matrix(1,0,0,-1,-14.9,721.1)"/>
<path style="fill-rule:evenodd;fill:rgb(20%,20%,20%);fill-opacity:1;stroke-width:1.2;stroke-linecap:butt;stroke-linejoin:round;stroke:rgb(20%,20%,20%);stroke-opacity:1;stroke-miterlimit:10;" d="M 336.001562 703.998438 L 400.001562 639.998438 " transform="matrix(1,0,0,-1,-14.9,721.1)"/>
<path style="fill-rule:evenodd;fill:rgb(20%,20%,20%);fill-opacity:1;stroke-width:1.2;stroke-linecap:butt;stroke-linejoin:round;stroke:rgb(20%,20%,20%);stroke-opacity:1;stroke-miterlimit:10;" d="M 336.001562 703.998438 L 464.001562 639.998438 " transform="matrix(1,0,0,-1,-14.9,721.1)"/>
<path style="fill:none;stroke-width:1.2;stroke-linecap:butt;stroke-linejoin:round;stroke:rgb(20%,20%,20%);stroke-opacity:1;stroke-miterlimit:10;" d="M 400.001562 639.998438 L 400.001562 575.998438 " transform="matrix(1,0,0,-1,-14.9,721.1)"/>
<path style="fill:none;stroke-width:1.2;stroke-linecap:butt;stroke-linejoin:round;stroke:rgb(20%,20%,20%);stroke-opacity:1;stroke-miterlimit:10;" d="M 464.001562 639.998438 L 464.001562 575.998438 " transform="matrix(1,0,0,-1,-14.9,721.1)"/>
<path style="fill-rule:evenodd;fill:rgb(20%,20%,20%);fill-opacity:1;stroke-width:1.2;stroke-linecap:butt;stroke-linejoin:round;stroke:rgb(20%,20%,20%);stroke-opacity:1;stroke-miterlimit:10;" d="M 464.001562 639.998438 L 528.001562 575.998438 " transform="matrix(1,0,0,-1,-14.9,721.1)"/>
<path style="fill:none;stroke-width:1.2;stroke-linecap:butt;stroke-linejoin:round;stroke:rgb(20%,20%,20%);stroke-opacity:1;stroke-miterlimit:10;" d="M 528.001562 575.998438 L 528.001562 511.998438 " transform="matrix(1,0,0,-1,-14.9,721.1)"/>
<path style="fill-rule:evenodd;fill:rgb(20%,20%,20%);fill-opacity:1;stroke-width:1.2;stroke-linecap:butt;stroke-linejoin:round;stroke:rgb(100%,100%,100%);stroke-opacity:1;stroke-miterlimit:10;" d="M 48.001562 703.998438 C 48.001562 712.838281 40.8375 719.998438 32.001562 719.998438 C 23.161719 719.998438 16.001562 712.838281 16.001562 703.998438 C 16.001562 695.1625 23.161719 687.998438 32.001562 687.998438 C 40.8375 687.998438 48.001562 695.1625 48.001562 703.998438 Z M 48.001562 703.998438 " transform="matrix(1,0,0,-1,-14.9,721.1)"/>
<path style="fill-rule:evenodd;fill:rgb(20%,20%,20%);fill-opacity:1;stroke-width:1.2;stroke-linecap:butt;stroke-linejoin:round;stroke:rgb(100%,100%,100%);stroke-opacity:1;stroke-miterlimit:10;" d="M 128.001563 703.998438 C 128.001563 712.838281 120.8375 719.998438 112.001563 719.998438 C 103.161719 719.998438 96.001563 712.838281 96.001563 703.998438 C 96.001563 695.1625 103.161719 687.998438 112.001563 687.998438 C 120.8375 687.998438 128.001563 695.1625 128.001563 703.998438 Z M 128.001563 703.998438 " transform="matrix(1,0,0,-1,-14.9,721.1)"/>
<path style="fill-rule:evenodd;fill:rgb(20%,20%,20%);fill-opacity:1;stroke-width:1.2;stroke-linecap:butt;stroke-linejoin:round;stroke:rgb(100%,100%,100%);stroke-opacity:1;stroke-miterlimit:10;" d="M 128.001563 639.998438 C 128.001563 648.838281 120.8375 655.998438 112.001563 655.998438 C 103.161719 655.998438 96.001563 648.838281 96.001563 639.998438 C 96.001563 631.1625 103.161719 623.998438 112.001563 623.998438 C 120.8375 623.998438 128.001563 631.1625 128.001563 639.998438 Z M 128.001563 639.998438 " transform="matrix(1,0,0,-1,-14.9,721.1)"/>
<path style="fill-rule:evenodd;fill:rgb(20%,20%,20%);fill-opacity:1;stroke-width:1.2;stroke-linecap:butt;stroke-linejoin:round;stroke:rgb(100%,100%,100%);stroke-opacity:1;stroke-miterlimit:10;" d="M 208.001563 703.998438 C 208.001563 712.838281 200.8375 719.998438 192.001563 719.998438 C 183.161719 719.998438 176.001563 712.838281 176.001563 703.998438 C 176.001563 695.1625 183.161719 687.998438 192.001563 687.998438 C 200.8375 687.998438 208.001563 695.1625 208.001563 703.998438 Z M 208.001563 703.998438 " transform="matrix(1,0,0,-1,-14.9,721.1)"/>
<path style="fill-rule:evenodd;fill:rgb(20%,20%,20%);fill-opacity:1;stroke-width:1.2;stroke-linecap:butt;stroke-linejoin:round;stroke:rgb(100%,100%,100%);stroke-opacity:1;stroke-miterlimit:10;" d="M 208.001563 639.998438 C 208.001563 648.838281 200.8375 655.998438 192.001563 655.998438 C 183.161719 655.998438 176.001563 648.838281 176.001563 639.998438 C 176.001563 631.1625 183.161719 623.998438 192.001563 623.998438 C 200.8375 623.998438 208.001563 631.1625 208.001563 639.998438 Z M 208.001563 639.998438 " transform="matrix(1,0,0,-1,-14.9,721.1)"/>
<path style="fill-rule:evenodd;fill:rgb(20%,20%,20%);fill-opacity:1;stroke-width:1.2;stroke-linecap:butt;stroke-linejoin:round;stroke:rgb(100%,100%,100%);stroke-opacity:1;stroke-miterlimit:10;" d="M 272.001562 639.998438 C 272.001562 648.838281 264.8375 655.998438 256.001562 655.998438 C 247.161719 655.998438 240.001563 648.838281 240.001563 639.998438 C 240.001563 631.1625 247.161719 623.998438 256.001562 623.998438 C 264.8375 623.998438 272.001562 631.1625 272.001562 639.998438 Z M 272.001562 639.998438 " transform="matrix(1,0,0,-1,-14.9,721.1)"/>
<path style="fill-rule:evenodd;fill:rgb(20%,20%,20%);fill-opacity:1;stroke-width:1.2;stroke-linecap:butt;stroke-linejoin:round;stroke:rgb(100%,100%,100%);stroke-opacity:1;stroke-miterlimit:10;" d="M 272.001562 575.998438 C 272.001562 584.838281 264.8375 591.998438 256.001562 591.998438 C 247.161719 591.998438 240.001563 584.838281 240.001563 575.998438 C 240.001563 567.1625 247.161719 559.998438 256.001562 559.998438 C 264.8375 559.998438 272.001562 567.1625 272.001562 575.998438 Z M 272.001562 575.998438 " transform="matrix(1,0,0,-1,-14.9,721.1)"/>
<path style="fill-rule:evenodd;fill:rgb(20%,20%,20%);fill-opacity:1;stroke-width:1.2;stroke-linecap:butt;stroke-linejoin:round;stroke:rgb(100%,100%,100%);stroke-opacity:1;stroke-miterlimit:10;" d="M 352.001562 703.998438 C 352.001562 712.838281 344.8375 719.998438 336.001562 719.998438 C 327.161719 719.998438 320.001562 712.838281 320.001562 703.998438 C 320.001562 695.1625 327.161719 687.998438 336.001562 687.998438 C 344.8375 687.998438 352.001562 695.1625 352.001562 703.998438 Z M 352.001562 703.998438 " transform="matrix(1,0,0,-1,-14.9,721.1)"/>
<path style="fill-rule:evenodd;fill:rgb(20%,20%,20%);fill-opacity:1;stroke-width:1.2;stroke-linecap:butt;stroke-linejoin:round;stroke:rgb(100%,100%,100%);stroke-opacity:1;stroke-miterlimit:10;" d="M 352.001562 639.998438 C 352.001562 648.838281 344.8375 655.998438 336.001562 655.998438 C 327.161719 655.998438 320.001562 648.838281 320.001562 639.998438 C 320.001562 631.1625 327.161719 623.998438 336.001562 623.998438 C 344.8375 623.998438 352.001562 631.1625 352.001562 639.998438 Z M 352.001562 639.998438 " transform="matrix(1,0,0,-1,-14.9,721.1)"/>
<path style="fill-rule:evenodd;fill:rgb(20%,20%,20%);fill-opacity:1;stroke-width:1.2;stroke-linecap:butt;stroke-linejoin:round;stroke:rgb(100%,100%,100%);stroke-opacity:1;stroke-miterlimit:10;" d="M 416.001562 639.998438 C 416.001562 648.838281 408.8375 655.998438 400.001562 655.998438 C 391.161719 655.998438 384.001562 648.838281 384.001562 639.998438 C 384.001562 631.1625 391.161719 623.998438 400.001562 623.998438 C 408.8375 623.998438 416.001562 631.1625 416.001562 639.998438 Z M 416.001562 639.998438 " transform="matrix(1,0,0,-1,-14.9,721.1)"/>
<path style="fill-rule:evenodd;fill:rgb(20%,20%,20%);fill-opacity:1;stroke-width:1.2;stroke-linecap:butt;stroke-linejoin:round;stroke:rgb(100%,100%,100%);stroke-opacity:1;stroke-miterlimit:10;" d="M 416.001562 575.998438 C 416.001562 584.838281 408.8375 591.998438 400.001562 591.998438 C 391.161719 591.998438 384.001562 584.838281 384.001562 575.998438 C 384.001562 567.1625 391.161719 559.998438 400.001562 559.998438 C 408.8375 559.998438 416.001562 567.1625 416.001562 575.998438 Z M 416.001562 575.998438 " transform="matrix(1,0,0,-1,-14.9,721.1)"/>
<path style="fill-rule:evenodd;fill:rgb(20%,20%,20%);fill-opacity:1;stroke-width:1.2;stroke-linecap:butt;stroke-linejoin:round;stroke:rgb(100%,100%,100%);stroke-opacity:1;stroke-miterlimit:10;" d="M 480.001562 639.998438 C 480.001562 648.838281 472.8375 655.998438 464.001562 655.998438 C 455.161719 655.998438 448.001562 648.838281 448.001562 639.998438 C 448.001562 631.1625 455.161719 623.998438 464.001562 623.998438 C 472.8375 623.998438 480.001562 631.1625 480.001562 639.998438 Z M 480.001562 639.998438 " transform="matrix(1,0,0,-1,-14.9,721.1)"/>
<path style="fill-rule:evenodd;fill:rgb(20%,20%,20%);fill-opacity:1;stroke-width:1.2;stroke-linecap:butt;stroke-linejoin:round;stroke:rgb(100%,100%,100%);stroke-opacity:1;stroke-miterlimit:10;" d="M 480.001562 575.998438 C 480.001562 584.838281 472.8375 591.998438 464.001562 591.998438 C 455.161719 591.998438 448.001562 584.838281 448.001562 575.998438 C 448.001562 567.1625 455.161719 559.998438 464.001562 559.998438 C 472.8375 559.998438 480.001562 567.1625 480.001562 575.998438 Z M 480.001562 575.998438 " transform="matrix(1,0,0,-1,-14.9,721.1)"/>
<path style="fill-rule:evenodd;fill:rgb(20%,20%,20%);fill-opacity:1;stroke-width:1.2;stroke-linecap:butt;stroke-linejoin:round;stroke:rgb(100%,100%,100%);stroke-opacity:1;stroke-miterlimit:10;" d="M 544.001562 575.998438 C 544.001562 584.838281 536.8375 591.998438 528.001562 591.998438 C 519.161719 591.998438 512.001562 584.838281 512.001562 575.998438 C 512.001562 567.1625 519.161719 559.998438 528.001562 559.998438 C 536.8375 559.998438 544.001562 567.1625 544.001562 575.998438 Z M 544.001562 575.998438 " transform="matrix(1,0,0,-1,-14.9,721.1)"/>
<path style="fill-rule:evenodd;fill:rgb(20%,20%,20%);fill-opacity:1;stroke-width:1.2;stroke-linecap:butt;stroke-linejoin:round;stroke:rgb(100%,100%,100%);stroke-opacity:1;stroke-miterlimit:10;" d="M 544.001562 511.998438 C 544.001562 520.838281 536.8375 527.998438 528.001562 527.998438 C 519.161719 527.998438 512.001562 520.838281 512.001562 511.998438 C 512.001562 503.1625 519.161719 495.998438 528.001562 495.998438 C 536.8375 495.998438 544.001562 503.1625 544.001562 511.998438 Z M 544.001562 511.998438 " transform="matrix(1,0,0,-1,-14.9,721.1)"/>
</g>
</svg>
